<?xml version="1.0" encoding="UTF-8" standalone="no"?>
<!-- Generator: Adobe Illustrator 17.0.0, SVG Export Plug-In . SVG Version: 6.00 Build 0)  -->

<svg
   xmlns:dc="http://purl.org/dc/elements/1.1/"
   xmlns:cc="http://creativecommons.org/ns#"
   xmlns:rdf="http://www.w3.org/1999/02/22-rdf-syntax-ns#"
   xmlns:svg="http://www.w3.org/2000/svg"
   xmlns="http://www.w3.org/2000/svg"
   xmlns:sodipodi="http://sodipodi.sourceforge.net/DTD/sodipodi-0.dtd"
   xmlns:inkscape="http://www.inkscape.org/namespaces/inkscape"
   version="1.1"
   x="0px"
   y="0px"
   width="3000"
   height="3000"
   viewBox="0 0 3000 3000"
   enable-background="new 0 0 2000 2000"
   xml:space="preserve"
   id="svg9729"
   sodipodi:docname="Colorwheel.svg"
   inkscape:version="0.92.3 (unknown)"><metadata
   id="metadata9735"><rdf:RDF><cc:Work
       rdf:about=""><dc:format>image/svg+xml</dc:format><dc:type
         rdf:resource="http://purl.org/dc/dcmitype/StillImage" /><dc:title></dc:title></cc:Work></rdf:RDF></metadata><defs
   id="defs9733">
	
	
	
	
	
	
	
	
	
	
	
	
	
	
	
	
	
	
	
	
	
	
	
	

		
	
			
		
		
	
			
		</defs><sodipodi:namedview
   pagecolor="#ffffff"
   bordercolor="#666666"
   borderopacity="1"
   objecttolerance="10"
   gridtolerance="10"
   guidetolerance="10"
   inkscape:pageopacity="0"
   inkscape:pageshadow="2"
   inkscape:window-width="1869"
   inkscape:window-height="1025"
   id="namedview9731"
   showgrid="false"
   inkscape:zoom="0.1668772"
   inkscape:cx="1559.7191"
   inkscape:cy="964.33328"
   inkscape:window-x="51"
   inkscape:window-y="27"
   inkscape:window-maximized="1"
   inkscape:current-layer="svg9729" />

<g
   id="Ellipse_1"
   style="stroke:none"
   transform="matrix(1.2680431,-2.196315,2.196315,1.2680431,-1965.2156,2429.0477)">
		<g
   id="g9610"
   style="stroke:none">
			<path
   style="fill:#fcee21;stroke:none"
   inkscape:connector-curvature="0"
   id="path9608"
   d="m 163.191,775.729 0.002,-0.008 c 0,0.003 -0.001,0.006 -0.002,0.008 z M 774.315,163.148 1000.48,1000.08 v 0 l 224.352,-837.289 c -153.174,-41.042 -307.756,-38.366 -450.517,0.357 z m 1.814,1674.221 v 0 h -0.01 c 0.003,10e-4 0.007,0 0.01,0 z" />
		</g>
	</g><g
   id="Ellipse_1_copy"
   style="stroke:none"
   transform="matrix(1.2680431,-2.196315,2.196315,1.2680431,-1965.2156,2429.0477)">
		<g
   id="g9615"
   style="stroke:none">
			<path
   style="fill:#b6d134;stroke:none"
   inkscape:connector-curvature="0"
   id="path9613"
   d="m 387.542,387.142 0.012,-0.012 c -0.004,0.004 -0.008,0.008 -0.012,0.012 z M 1223.081,162.193 1000.48,1000.08 v 0 L 1613.418,387.141 C 1501.288,275.012 1366.077,200.039 1223.081,162.193 Z M 387.542,1613.018 v 0 l -0.01,-0.01 c 0.004,0 0.007,0.01 0.01,0.01 z" />
		</g>
	</g><g
   id="Ellipse_1_copy_2"
   style="stroke:none"
   transform="matrix(1.2680431,-2.196315,2.196315,1.2680431,-1965.2156,2429.0477)">
		<g
   id="g9620"
   style="stroke:none">
			<path
   style="fill:#35a849;stroke:none"
   inkscape:connector-curvature="0"
   id="path9618"
   d="m 776.129,162.791 0.006,-0.002 c -0.002,0.001 -0.004,0.002 -0.006,0.002 z m -612.938,1061.64 v 0 l -0.002,-0.01 c 0.001,0 0.001,0.01 0.002,0.01 z m 1061.64,612.938 c 0,-10e-4 0.01,0 0.013,0 z M 1612.202,385.749 1000.48,1000.08 v 0 L 1837.769,775.729 C 1796.726,622.557 1717.117,490.023 1612.202,385.749 Z" />
		</g>
	</g><g
   id="Ellipse_1_copy_3"
   style="stroke:none"
   transform="matrix(1.2680431,-2.196315,2.196315,1.2680431,-1965.2156,2429.0477)">
		<g
   id="g9625"
   style="stroke:none">
			<path
   style="fill:#069d7e;stroke:none"
   inkscape:connector-curvature="0"
   id="path9623"
   d="m 1224.831,162.791 v 0 l 0.01,0.002 c 0,0 -0.01,-0.001 -0.01,-0.002 z m -1061.64,612.938 0.002,-0.008 c 0,0.003 -0.001,0.006 -0.002,0.008 z m 612.938,1061.64 c 0.003,10e-4 0.007,0 0.01,0 z M 1837.412,773.915 1000.48,1000.08 v 0 l 837.289,224.352 c 41.042,-153.174 38.366,-307.756 -0.357,-450.517 z" />
		</g>
	</g><g
   id="Ellipse_1_copy_4"
   style="stroke:none"
   transform="matrix(1.2680431,-2.196315,2.196315,1.2680431,-1965.2156,2429.0477)">
		<g
   id="g9630"
   style="stroke:none">
			<path
   style="fill:#085ba7;stroke:none"
   inkscape:connector-curvature="0"
   id="path9628"
   d="m 387.542,387.142 0.012,-0.012 c -0.004,0.004 -0.008,0.008 -0.012,0.012 z m 1225.876,0 v 0 l 0.01,0.01 c 0,-0.003 -0.01,-0.007 -0.01,-0.01 z M 387.542,1613.018 c 0.003,0 0.006,0.01 0.01,0.01 z M 1000.48,1000.08 v 0 l 612.938,612.938 c 112.13,-112.13 187.103,-247.34 224.949,-390.337 z" />
		</g>
	</g><g
   id="Ellipse_1_copy_5"
   style="stroke:none"
   transform="matrix(1.2680431,-2.196315,2.196315,1.2680431,-1965.2156,2429.0477)">
		<g
   id="g9635"
   style="stroke:none">
			<path
   style="fill:#3f2f84;stroke:none"
   inkscape:connector-curvature="0"
   id="path9633"
   d="m 776.129,162.791 0.006,-0.002 c -0.002,0.001 -0.004,0.002 -0.006,0.002 z m 224.351,837.289 v 0 l 224.351,837.289 c 153.172,-41.042 285.706,-120.651 389.98,-225.567 z" />
		</g>
	</g><g
   id="Ellipse_1_copy_6"
   style="stroke:none"
   transform="matrix(1.2680431,-2.196315,2.196315,1.2680431,-1965.2156,2429.0477)">
		<g
   id="g9640"
   style="stroke:none">
			<path
   style="fill:#5f2c83;stroke:none"
   inkscape:connector-curvature="0"
   id="path9638"
   d="m 1224.831,162.791 v 0 l 0.01,0.002 z m -1061.642,612.946 0.002,-0.008 v 0 c 0,0.003 -0.001,0.005 -0.002,0.008 z m 837.291,224.343 v 0 l -224.352,837.289 c 153.173,41.042 307.755,38.366 450.516,-0.356 z" />
		</g>
	</g><g
   id="Ellipse_1_copy_7"
   style="stroke:none"
   transform="matrix(1.2680431,-2.196315,2.196315,1.2680431,-1965.2156,2429.0477)">
		<g
   id="g9645"
   style="stroke:none">
			<path
   style="fill:#7e2982;stroke:none"
   inkscape:connector-curvature="0"
   id="path9643"
   d="m 387.542,1613.018 c 112.13,112.13 247.34,187.103 390.337,224.95 L 1000.48,1000.08 v 0 z m 0,-1225.876 c -0.006,0.006 -0.011,0.011 -0.017,0.017 z" />
		</g>
	</g><path
   style="fill:#cb202d;stroke:none;stroke-width:2.53608608"
   inkscape:connector-curvature="0"
   id="path9648"
   d="m -623.5103,930.84995 c -0.003,0.005 -0.002,0.01 -0.003,0.0157 z M 930.95379,3623.2601 c 388.45921,104.0888 780.49321,97.3012 1142.54761,-0.9048 L 1499.9268,1499.823 v 0 z m 2692.40031,-1554.4317 0.016,-0.028 v 0 z" /><path
   style="fill:#e54b27;stroke:#e54b27;stroke-width:1;stroke-linecap:round;stroke-linejoin:bevel;stroke-miterlimit:4;stroke-dasharray:none;stroke-opacity:1"
   inkscape:connector-curvature="0"
   id="path9653"
   d="M -54.537176,3054.2867 C 229.83601,3338.6579 572.74001,3528.7971 935.38929,3624.7785 L 1499.9268,1499.8231 v 0 z m 3108.927676,3e-4 v 0 l -0.013,0.022 c 0.01,-0.012 0.01,-0.015 0.013,-0.022 z" /><g
   id="Ellipse_1_copy_10"
   style="stroke:none"
   transform="matrix(1.2680431,-2.196315,2.196315,1.2680431,-1965.2156,2429.0477)">
		<g
   id="g9660"
   style="stroke:none">
			<path
   style="fill:#ed7125;stroke:none"
   inkscape:connector-curvature="0"
   id="path9658"
   d="m 1613.138,387.402 0.01,0.01 v 0 c 0,-0.003 -0.01,-0.007 -0.01,-0.01 z M 162.961,777.577 1000.48,1000.08 v 0 L 387.812,387.412 C 275.731,499.492 200.791,634.643 162.961,777.577 Z" />
		</g>
	</g><g
   id="Ellipse_1_copy_11"
   style="stroke:none"
   transform="matrix(1.2680431,-2.196315,2.196315,1.2680431,-1965.2156,2429.0477)">
		<g
   id="g9665"
   style="stroke:none">
			<path
   style="fill:#f7ab1b;stroke:none"
   inkscape:connector-curvature="0"
   id="path9663"
   d="m 386.149,388.358 614.331,611.722 v 0 L 776.129,162.791 C 622.957,203.834 490.423,283.443 386.149,388.358 Z m 838.669,1449.014 h 0.013 v 0 z M 163.191,1224.431 v 0 l -0.002,-0.01 c 0.001,0 0.001,0.01 0.002,0.01 z" />
		</g>
	</g>
</svg>